<svg width="155" height="40" viewBox="0 0 155 40" fill="none" xmlns="http://www.w3.org/2000/svg">
<path d="M61.0391 25.1758H68.5039V28H57.5234V10.9375H61.0391V25.1758ZM76.6445 28.2344C74.7852 28.2344 73.2695 27.6641 72.0977 26.5234C70.9336 25.3828 70.3516 23.8633 70.3516 21.9648V21.6367C70.3516 20.3633 70.5977 19.2266 71.0898 18.2266C71.582 17.2188 72.2773 16.4453 73.1758 15.9062C74.082 15.3594 75.1133 15.0859 76.2695 15.0859C78.0039 15.0859 79.3672 15.6328 80.3594 16.7266C81.3594 17.8203 81.8594 19.3711 81.8594 21.3789V22.7617H73.7852C73.8945 23.5898 74.2227 24.2539 74.7695 24.7539C75.3242 25.2539 76.0234 25.5039 76.8672 25.5039C78.1719 25.5039 79.1914 25.0312 79.9258 24.0859L81.5898 25.9492C81.082 26.668 80.3945 27.2305 79.5273 27.6367C78.6602 28.0352 77.6992 28.2344 76.6445 28.2344ZM76.2578 17.8281C75.5859 17.8281 75.0391 18.0547 74.6172 18.5078C74.2031 18.9609 73.9375 19.6094 73.8203 20.4531H78.5312V20.1836C78.5156 19.4336 78.3125 18.8555 77.9219 18.4492C77.5312 18.0352 76.9766 17.8281 76.2578 17.8281ZM90.8789 22.0586H84.2812V19.3281H90.8789V22.0586ZM103.953 24.4844H97.7891L96.6172 28H92.8789L99.2305 10.9375H102.488L108.875 28H105.137L103.953 24.4844ZM98.7383 21.6367H103.004L100.859 15.25L98.7383 21.6367ZM117.871 18.4961C117.41 18.4336 117.004 18.4023 116.652 18.4023C115.371 18.4023 114.531 18.8359 114.133 19.7031V28H110.746V15.3203H113.945L114.039 16.832C114.719 15.668 115.66 15.0859 116.863 15.0859C117.238 15.0859 117.59 15.1367 117.918 15.2383L117.871 18.4961ZM124.652 12.2031V15.3203H126.82V17.8047H124.652V24.1328C124.652 24.6016 124.742 24.9375 124.922 25.1406C125.102 25.3438 125.445 25.4453 125.953 25.4453C126.328 25.4453 126.66 25.418 126.949 25.3633V27.9297C126.285 28.1328 125.602 28.2344 124.898 28.2344C122.523 28.2344 121.312 27.0352 121.266 24.6367V17.8047H119.414V15.3203H121.266V12.2031H124.652ZM134.48 25.5039C135.105 25.5039 135.613 25.332 136.004 24.9883C136.395 24.6445 136.598 24.1875 136.613 23.6172H139.789C139.781 24.4766 139.547 25.2656 139.086 25.9844C138.625 26.6953 137.992 27.25 137.188 27.6484C136.391 28.0391 135.508 28.2344 134.539 28.2344C132.727 28.2344 131.297 27.6602 130.25 26.5117C129.203 25.3555 128.68 23.7617 128.68 21.7305V21.5078C128.68 19.5547 129.199 17.9961 130.238 16.832C131.277 15.668 132.703 15.0859 134.516 15.0859C136.102 15.0859 137.371 15.5391 138.324 16.4453C139.285 17.3438 139.773 18.543 139.789 20.043H136.613C136.598 19.3867 136.395 18.8555 136.004 18.4492C135.613 18.0352 135.098 17.8281 134.457 17.8281C133.668 17.8281 133.07 18.1172 132.664 18.6953C132.266 19.2656 132.066 20.1953 132.066 21.4844V21.8359C132.066 23.1406 132.266 24.0781 132.664 24.6484C133.062 25.2188 133.668 25.5039 134.48 25.5039ZM145.527 16.7031C146.426 15.625 147.555 15.0859 148.914 15.0859C151.664 15.0859 153.059 16.6836 153.098 19.8789V28H149.711V19.9727C149.711 19.2461 149.555 18.7109 149.242 18.3672C148.93 18.0156 148.41 17.8398 147.684 17.8398C146.691 17.8398 145.973 18.2227 145.527 18.9883V28H142.141V10H145.527V16.7031Z" fill="#2A2A2A"/>
<path d="M40 0H0V40H40V0Z" fill="#2A2A2A"/>
<path d="M27.2674 11.4297H22.0801V16.617H27.2674V11.4297Z" fill="white"/>
<path d="M17.9139 23.3767V13.0693H12.7266V23.3767V28.5708H17.9139H27.2739V23.3767H17.9139Z" fill="white"/>
</svg>
